<svg width="157" height="123" viewBox="0 0 157 123" fill="none" xmlns="http://www.w3.org/2000/svg">
<g clip-path="url(#clip0_24_13)">
<path d="M132.76 77.22C130.56 74.15 129.26 71.05 128.84 67.92L129.23 36.3C128.98 25.68 124.73 16.58 118.36 11.13C108.87 3 101.27 0 91.02 0C73.2 0 64.35 8.99 64.35 8.99C64.35 8.99 62.17 7.67 58.29 5.34C54.35 3.25 49.15 2.15 42.71 2.04C32.68 2.04 24.6 5.72 18.45 13.07H18.1V11.92V3.22H0L0.07 96.17H18.16L18.13 59.83V33.76C19.5 30.16 21.55 27 24.23 24.39C29.4 19.35 36.5 16.69 44.77 16.69C53.04 16.69 59.79 19.25 64.35 24.33C68.91 19.25 75.46 16.69 83.93 16.69C92.4 16.69 99.6 19.07 104.47 24.39C109.89 30.31 112.81 37.73 112.69 45.91C112.62 50.76 111.55 54.85 110.95 58.65C110.54 61.23 110.73 69.08 110.73 69.08C110.77 72.31 111.29 75.21 112.29 77.78C113.41 80.42 114.96 83.2 116.94 86.12L123.68 96.05L138.64 85.89L132.76 77.22Z" fill="#B33EFC"/>
<path d="M146.274 97.0994L131.307 107.26L141.759 122.657L156.727 112.497L146.274 97.0994Z" fill="#B33EFC"/>
<path d="M83.93 29.89C78.94 29.89 74.7 30.68 70.97 33.28C69.31 34.44 64.57 38.25 64.57 38.25H64.12C64.12 38.25 59.41 34.41 57.72 33.28C54.89 31.38 49.14 29.89 44.76 29.89C37.92 29.89 29.19 35.58 29.19 45.91C29.19 61.37 38.02 70.74 46.71 79.61C51.28 84.28 59.5 90.9 64.33 96.18C69.16 90.91 77.97 83.64 81.95 79.61C90.69 70.78 99.47 61.36 99.47 45.91C99.47 35.58 91.05 29.89 83.9 29.89H83.93Z" fill="#B33EFC"/>
</g>
<defs>
<clipPath id="clip0_24_13">
<rect width="156.72" height="122.67" fill="white"/>
</clipPath>
</defs>
</svg>
